Handbrake Version: 20250906052339-dddf75f75-makepkg (2025100401)
[17:01:04] gtkgui: Modified Custom Preset: /Custom/NVENC (No Filters)
[17:01:04] Starting work at: Mon Oct  6 17:01:04 2025

[17:01:04] 1 job(s) to process
[17:01:04] json job:
{
    "Audio": {
        "AudioList": [
            {
                "Bitrate": 512,
                "CompressionLevel": -1.0,
                "DRC": 0.0,
                "DitherMethod": "auto",
                "Encoder": "opus",
                "Gain": 0.0,
                "Mixdown": "stereo",
                "Name": "Stereo",
                "NormalizeMixLevel": false,
                "PresetEncoder": "av_aac",
                "Quality": -3.0,
                "Samplerate": 0,
                "Track": 0
            }
        ],
        "CopyMask": [
            "copy:aac"
        ],
        "FallbackEncoder": "av_aac"
    },
    "Destination": {
        "AlignAVStart": false,
        "ChapterList": [
            {
                "Duration": {
                    "Hours": 0,
                    "Minutes": 10,
                    "Seconds": 47,
                    "Ticks": 58247010
                },
                "Name": ""
            }
        ],
        "ChapterMarkers": false,
        "File": "/home/sudar/Videos/HandBrake/IND_vs_WI_2025_1st_Test_Day_2_-_Match_Highlights2.mkv",
        "InlineParameterSets": false,
        "Mux": "mkv",
        "Options": {
            "IpodAtom": false,
            "Optimize": false
        }
    },
    "Filters": {
        "FilterList": [
            {
                "ID": 11,
                "Settings": {
                    "mode": 0
                }
            },
            {
                "ID": 20,
                "Settings": {
                    "crop-bottom": 0,
                    "crop-left": 0,
                    "crop-right": 0,
                    "crop-top": 0,
                    "height": 1080,
                    "width": 1920
                }
            },
            {
                "ID": 28,
                "Settings": {
                    "bottom": "0",
                    "color": "black",
                    "left": "0",
                    "right": "0",
                    "top": "0"
                }
            }
        ]
    },
    "Metadata": {},
    "PAR": {
        "Den": 1,
        "Num": 1
    },
    "SequenceID": 0,
    "Source": {
        "Angle": 0,
        "HWDecode": 0,
        "KeepDuplicateTitles": false,
        "Path": "/home/sudar/Videos/YouTube/IND_vs_WI_2025_1st_Test_Day_2_-_Match_Highlights.mkv",
        "Range": {
            "End": 1,
            "Start": 1,
            "Type": "chapter"
        },
        "Title": 1
    },
    "Subtitle": {
        "Search": {
            "Burn": true,
            "Default": false,
            "Enable": false,
            "Forced": false
        },
        "SubtitleList": []
    },
    "Video": {
        "AdapterIndex": -1,
        "AsyncDepth": 0,
        "ChromaLocation": 1,
        "ColorInputFormat": 0,
        "ColorMatrix": 1,
        "ColorOutputFormat": 0,
        "ColorPrimaries": 1,
        "ColorRange": 0,
        "ColorTransfer": 1,
        "Encoder": "ffv1",
        "HardwareDecode": 0,
        "Level": "auto",
        "MultiPass": true,
        "Options": "",
        "PasshtruHDRDynamicMetadata": 6,
        "Preset": "preservation",
        "Profile": "auto",
        "Quality": 0.0,
        "Tune": "",
        "Turbo": true
    }
}
[17:01:04] CPU: Intel(R) Xeon(R) W-2135 CPU @ 3.70GHz
[17:01:04]  - logical processor count: 12
[17:01:04] Intel Quick Sync Video support: no
[17:01:04] hb_scan: path=/home/sudar/Videos/YouTube/IND_vs_WI_2025_1st_Test_Day_2_-_Match_Highlights.mkv, title_index=1
Input #0, matroska,webm, from '/home/sudar/Videos/YouTube/IND_vs_WI_2025_1st_Test_Day_2_-_Match_Highlights.mkv':
  Metadata:
    COMPATIBLE_BRANDS: isomiso2avc1mp41
    MAJOR_BRAND     : isom
    MINOR_VERSION   : 512
    ENCODER         : Lavf62.3.100
  Duration: 00:10:47.19, start: 0.000000, bitrate: 3685 kb/s
  Stream #0:0: Video: h264 (High), yuv420p(progressive), 1920x1080 [SAR 1:1 DAR 16:9], 25 fps, 25 tbr, 1k tbn (default)
      Metadata:
        HANDLER_NAME    : VideoHandler
        VENDOR_ID       : [0][0][0][0]
        DURATION        : 00:10:47.120000000
  Stream #0:1(eng): Audio: aac (LC), 48000 Hz, stereo, fltp (default)
      Metadata:
        HANDLER_NAME    : Bento4 Sound Handler
        VENDOR_ID       : [0][0][0][0]
        DURATION        : 00:10:47.189000000
[17:01:04] scan: decoding previews for title 1
[17:01:04] scan: audio 0x1: aac, rate=48000Hz, bitrate=1 English (AAC LC, 2.0 ch)
[17:01:04] using container PAR 1:1
[17:01:04] scan: 10 previews, 1920x1080, 25.000 fps, autocrop = 0/0/0/0, aspect 16:9, PAR 1:1, color profile: 1-1-1, chroma location: left
[17:01:04] libhb: scan thread found 1 valid title(s)
[17:01:04] Starting Task: Analysis Pass
[17:01:04] work: skipping crop/scale filter
[17:01:04] work: compression level not specified, track 1 setting compression level 10.00
[17:01:04] job configuration:
[17:01:04]  * source
[17:01:04]    + /home/sudar/Videos/YouTube/IND_vs_WI_2025_1st_Test_Day_2_-_Match_Highlights.mkv
[17:01:04]    + title 1, chapter(s) 1 to 1
[17:01:04]    + container: matroska,webm
[17:01:04]    + data rate: 3685 kbps
[17:01:04]  * destination
[17:01:04]    + /home/sudar/Videos/HandBrake/IND_vs_WI_2025_1st_Test_Day_2_-_Match_Highlights2.mkv
[17:01:04]    + container: Matroska (libavformat)
[17:01:04]  * video track
[17:01:04]    + decoder: h264 8-bit (yuv420p)
[17:01:04]    + filters
[17:01:04]      + Framerate Shaper (mode=0)
[17:01:04]        + frame rate: same as source (around 25.000 fps)
[17:01:04]      + Pad (color=black:top=0:bottom=0:left=0:right=0)
[17:01:04]    + Output geometry
[17:01:04]      + storage dimensions: 1920 x 1080
[17:01:04]      + pixel aspect ratio: 1 : 1
[17:01:04]      + display dimensions: 1920 x 1080
[17:01:04]    + encoder: FFV1 (libavcodec)
[17:01:04]      + preset:  preservation
[17:01:04]      + profile: auto
[17:01:04]      + level:   auto
[17:01:04]      + quality: 0.00 (QP)
[17:01:04]      + color profile: 1-1-1
[17:01:04]      + color range: tv
[17:01:04]      + chroma location: left
[17:01:04]  * audio track 1
[17:01:04]    + name: Stereo
[17:01:04]    + decoder: English (AAC LC, 2.0 ch) (track 1, id 0x1)
[17:01:04]      + samplerate: 48000 Hz
[17:01:04]    + mixdown: Stereo
[17:01:04]    + encoder: Opus (libopus)
[17:01:04]      + bitrate: 512 kbps, samplerate: 48000 Hz
[17:01:04]      + compression level: 10.00
[17:01:04] sync: expecting 16179 video frames
[17:01:04] encavcodecInit: FFV1 (libavcodec)
[17:01:04] encavcodec: encoding at constant quantizer 0
[17:01:04] encavcodec: encoding with stored aspect 1/1
[17:01:04] sync: first pts video is 0
[17:01:04] sync: Chapter 1 at frame 1 time 0
[17:01:04] sync: first pts audio 0x1 is 0
[17:01:16] work: average encoding speed for job is 77.524574 fps
[17:01:16] vfr: 700 frames output, 0 dropped
[17:01:16] vfr: lost time: 0 (0 frames)
[17:01:16] vfr: gained time: 0 (0 frames) (0 not accounted for)
[17:01:16] aac-decoder done: 1427 frames, 0 decoder errors
[17:01:16] h264-decoder done: 747 frames, 0 decoder errors
[17:01:16] sync: got 710 frames, 16179 expected
[17:01:16] sync: framerate min 25.000 fps, max 25.000 fps, avg 25.000 fps
[17:01:16] Finished work at: Mon Oct  6 17:01:16 2025

[17:01:16] libhb: work result = 1
